<?xml version="1.0" encoding="utf-8"?>
<!-- Svg Vector Icons : http://www.onlinewebfonts.com/icon -->
<!DOCTYPE svg PUBLIC "-//W3C//DTD SVG 1.1//EN" "http://www.w3.org/Graphics/SVG/1.1/DTD/svg11.dtd">
<svg version="1.1" xmlns="http://www.w3.org/2000/svg" xmlns:xlink="http://www.w3.org/1999/xlink" x="0px" y="0px" viewBox="0 0 1000 1000" enable-background="new 0 0 1000 1000" xml:space="preserve">
<metadata> Svg Vector Icons : http://www.onlinewebfonts.com/icon </metadata>
<g><g transform="translate(0.000000,512.000000) scale(0.100000,-0.100000)"><path d="M1127.8,5001.5c-451.9-76.6-806.1-379.1-968.9-827.2c-51.7-137.9-51.7-145.5-51.7-647.2c0-499.8,0-509.3,47.9-603.2c185.7-381,677.8-474.9,972.7-185.7c158.9,155.1,183.8,231.7,195.3,589.8c7.7,252.7,15.3,315.9,44,360c74.7,113-147.4,107.2,3636.1,107.2c3266.6,0,3475.3-1.9,3538.5-34.5c38.3-19.2,80.4-61.3,99.6-99.6c32.6-63.2,34.5-271.9,34.5-3553.8v-3486.8l-44-65.1c-23-34.5-65.1-74.7-90-88.1c-68.9-34.5-7015.7-36.4-7082.7,0c-24.9,11.5-65.1,47.9-86.2,76.6c-36.4,47.9-42.1,88.1-49.8,354.2c-9.6,271.9-15.3,310.2-59.4,407.8c-63.2,132.1-168.5,237.4-304.4,302.5c-84.2,40.2-132.1,49.8-248.9,49.8c-243.2-1.9-434.7-118.7-549.5-340.8c-53.6-99.6-53.6-101.5-59.4-540c-7.7-517,11.5-643.3,130.2-886.5C369.5-4388.5,607-4597.2,921-4717.8l143.6-55.5h3925.2c3785.5,0,3929.1,1.9,4030.6,36.4c337,114.9,603.1,337,744.8,626.1c147.4,296.8,137.9-9.6,132.1,4292.9l-5.7,3852.5l-51.7,139.8c-139.8,382.9-415.5,658.7-787,783.1l-157,53.6l-3839.1,1.9C2944.9,5014.9,1177.6,5009.1,1127.8,5001.5z"/><path d="M4807.9,2539.1c-120.6-44-235.5-126.4-304.4-222.1c-109.2-149.3-116.8-203-116.8-928.7V731.6l-1909-3.8L566.8,722l-105.3-49.8C327.4,609,220.2,501.8,157,367.8c-40.2-86.2-49.8-132.1-49.8-258.5c0-128.3,7.7-170.4,53.6-262.3c65.1-134,193.4-250.8,331.3-302.5c103.4-38.3,141.7-38.3,1999-38.3h1893.7l5.8-693.1c5.7-677.8,7.7-697,49.8-790.8c55.5-120.6,158.9-227.9,281.5-293c84.2-46,116.8-51.7,277.6-51.7c164.7,0,191.5,5.7,279.6,53.6c68.9,38.3,390.6,348.5,1093.3,1053.1C7492.4-91.8,7440.7-156.9,7440.7,128.4c-1.9,262.3,28.7,224-1079.9,1334.6c-873.1,875-1001.4,995.7-1101,1041.6C5116.2,2569.7,4932.4,2583.1,4807.9,2539.1z"/></g></g>
</svg>